<svg width="468" height="446" viewBox="0 0 468 446" fill="none" xmlns="http://www.w3.org/2000/svg">
<path d="M157.501 317.739V371.739C157.501 381.739 158.501 389.739 161.501 397.739C166.168 409.073 173.168 419.073 182.501 427.739C197.501 440.739 214.501 446.739 233.501 445.739C254.168 444.406 271.168 436.406 284.501 421.739C295.501 408.739 302.501 393.739 303.501 376.739V340.739C303.501 333.739 311.501 330.739 316.501 330.739H383.501L399.501 329.739C425.501 323.739 447.501 303.739 458.501 279.739C464.501 265.739 466.501 250.739 467.501 235.739C467.501 227.739 459.501 221.739 452.501 218.739L401.501 196.739C395.501 194.073 391.168 190.406 388.501 185.739C380.501 172.739 372.501 160.739 361.501 150.739L349.501 140.739L347.501 137.739L344.501 56.7394L343.501 47.7394C340.501 40.7394 332.501 36.7394 325.501 39.7394L316.501 45.7394C291.834 69.7394 274.168 98.406 263.501 131.739C260.501 140.739 257.501 153.739 258.501 163.739C259.501 172.739 268.501 181.739 278.501 178.739C288.501 174.739 287.501 163.739 288.501 155.739C288.501 151.739 289.501 146.406 291.501 139.739C297.501 122.406 305.834 106.739 316.501 92.7394C317.168 91.406 317.501 91.406 317.501 92.7394L318.501 142.739L319.501 151.739C322.501 159.739 329.501 162.739 336.501 168.739C344.501 174.073 351.168 181.406 356.501 190.739L363.501 203.739C368.501 212.739 376.501 217.739 386.501 221.739L436.501 244.739C436.766 244.739 437.021 244.845 437.208 245.032C437.396 245.22 437.501 245.474 437.501 245.739C433.501 270.739 418.501 293.739 393.501 299.739L378.501 300.739H327.501L307.501 301.739C290.501 303.739 273.501 316.739 272.501 335.739V373.739C271.871 383.78 267.741 393.283 260.828 400.592C253.916 407.902 244.659 412.557 234.669 413.746C224.678 414.936 214.587 412.584 206.152 407.102C197.717 401.619 191.471 393.352 188.501 383.739L187.501 371.739V319.739L186.501 306.739C184.501 297.739 175.501 290.739 166.501 287.739L151.501 286.739H71.5011C54.5011 282.739 39.5011 269.739 33.5011 254.739C22.5011 226.739 37.5011 193.739 66.5011 185.739L78.5011 184.739H150.501C158.501 184.739 164.168 184.073 167.501 182.739C172.834 180.739 177.501 177.406 181.501 172.739C187.501 166.739 187.501 159.739 187.501 151.739V71.7394C187.501 39.7394 224.501 19.7394 250.501 36.7394C256.501 39.7394 260.501 45.7394 266.501 47.7394C273.501 50.7394 281.501 47.7394 285.501 39.7394C288.501 32.7394 284.501 24.7394 278.501 19.7394C267.734 9.53575 254.078 2.9068 239.401 0.758872C224.723 -1.38906 209.74 1.04888 196.501 7.73937C178.501 17.7394 163.501 34.7394 158.501 55.7394L157.501 67.7394V153.739H156.501L142.501 154.739H73.5011C62.8344 154.739 53.1677 157.073 44.5011 161.739C34.2673 167.002 25.2557 174.359 18.0523 183.334C10.849 192.308 5.61514 202.698 2.69118 213.827C-0.232771 224.957 -0.781369 236.578 1.08105 247.934C2.94346 259.29 7.17519 270.126 13.5011 279.739C22.1677 293.739 34.1677 304.406 49.5011 311.739C57.5011 315.073 65.1677 316.739 72.5011 316.739H156.501L157.501 317.739Z" fill="black"/>
<path d="M346.501 209.739C346.501 205.761 344.921 201.946 342.108 199.133C339.295 196.32 335.479 194.739 331.501 194.739C327.699 194.993 324.135 196.685 321.535 199.471C318.935 202.257 317.493 205.928 317.501 209.739C317.736 213.375 319.287 216.801 321.863 219.377C324.439 221.953 327.865 223.504 331.501 223.739C335.312 223.748 338.983 222.305 341.769 219.705C344.555 217.105 346.247 213.542 346.501 209.739Z" fill="black"/>
</svg>
