<svg width="597" height="573" viewBox="0 0 597 573" fill="none" xmlns="http://www.w3.org/2000/svg">
<path d="M216.59 445.671V387.939L215.52 386.87H125.681C117.838 386.87 109.638 385.088 101.082 381.524C84.6826 373.684 71.8484 362.28 62.5792 347.312C55.8136 337.035 51.2877 325.449 49.2958 313.308C47.3039 301.168 47.8907 288.744 51.0179 276.844C54.1451 264.945 59.7428 253.837 67.4469 244.243C75.151 234.648 84.789 226.782 95.7342 221.156C105.003 216.167 115.342 213.672 126.75 213.672H200.547L215.52 212.603H216.59V120.658L217.659 107.829C223.007 85.3775 239.049 67.2024 258.301 56.5112C272.46 49.3582 288.485 46.7518 304.182 49.0482C319.88 51.3446 334.486 58.4317 346.001 69.3406C363.113 93.1157 356.696 130.603 353.488 138.087C353.488 138.087 360.261 122.797 386.643 97.1378L396.268 90.7231C403.755 87.5157 412.311 91.7922 415.52 99.276L416.589 108.898L419.798 195.497L421.937 198.704L434.771 209.396C446.536 220.087 455.092 232.916 463.648 246.815C466.5 251.804 471.134 255.724 477.552 258.575L532.097 282.096C539.583 285.303 548.14 291.718 548.14 300.271C547.07 316.308 544.931 332.345 538.514 347.312C526.749 372.971 503.22 394.354 475.413 400.768L458.3 401.837H386.643C381.295 401.837 372.739 405.045 372.739 412.529V451.017C371.669 469.192 364.183 485.229 352.418 499.127C338.158 514.808 319.976 523.361 297.873 524.786C277.552 525.855 259.37 519.441 243.327 505.542C233.345 496.276 225.859 485.585 220.868 473.469C217.659 464.916 216.59 456.363 216.59 445.671Z" fill="white"/>
<path d="M216.45 387.63V445.35C216.45 456.039 217.519 464.59 220.728 473.141C225.719 485.255 233.206 495.944 243.188 505.208C259.231 519.103 277.412 525.517 297.733 524.448C319.837 523.023 338.018 514.472 352.279 498.794C364.043 484.899 371.53 468.865 372.599 450.694V412.214C372.599 404.732 381.155 401.525 386.503 401.525H458.161L475.273 400.456C503.08 394.043 526.61 372.665 538.374 347.012C544.791 332.047 546.93 316.014 548 299.98C548 291.429 539.444 285.016 531.957 281.809L477.412 258.293C470.995 255.443 466.36 251.524 463.508 246.536C454.952 232.64 446.396 219.813 434.631 209.124L421.797 198.435L419.658 195.229L416.449 108.648L415.38 99.0283C412.171 91.5461 403.615 87.2705 396.129 90.4772L386.503 96.8905C360.122 122.544 341.227 153.186 329.819 188.815C326.61 198.435 323.402 212.331 324.471 223.02C325.541 232.64 335.166 242.26 345.861 239.053C356.557 234.778 355.487 223.02 356.557 214.469C356.557 210.193 357.626 204.492 359.765 197.367C366.182 178.839 375.095 162.093 386.503 147.129C387.216 145.703 387.573 145.703 387.573 147.129L388.642 200.573L389.712 210.193C392.92 218.744 400.407 221.951 407.893 228.364C416.45 234.065 423.58 241.904 429.284 251.88L436.77 265.776C442.118 275.396 450.674 280.74 461.369 285.016L514.845 309.6C515.129 309.6 515.401 309.713 515.601 309.913C515.802 310.114 515.915 310.386 515.915 310.669C511.636 337.392 495.594 361.976 468.856 368.389L452.813 369.458H398.268L376.877 370.527C358.696 372.665 340.514 386.561 339.444 406.87V447.488C338.771 458.22 334.353 468.377 326.96 476.191C319.567 484.004 309.666 488.979 298.982 490.251C288.297 491.522 277.505 489.009 268.483 483.148C259.461 477.288 252.781 468.451 249.605 458.177L248.535 445.35V389.767L247.466 375.872C245.327 366.252 235.701 358.769 226.076 355.563L210.033 354.494H124.472C106.29 350.218 90.247 336.323 83.8299 320.289C72.0653 290.36 88.108 255.087 119.124 246.536L131.958 245.467H208.963C217.519 245.467 223.58 244.754 227.145 243.329C232.849 241.191 237.84 237.628 242.118 232.64C248.535 226.227 248.535 218.744 248.535 210.193V124.682C248.535 90.4772 288.108 69.0993 315.915 87.2705C322.332 90.4772 326.61 96.8905 333.027 99.0283C340.514 102.235 349.07 99.0283 353.348 90.4772C356.557 82.9949 352.279 74.4438 345.861 69.0993C334.346 58.1927 319.741 51.1071 304.043 48.8112C288.345 46.5152 272.321 49.1211 258.161 56.2726C238.91 66.9615 222.867 85.1327 217.519 107.579L216.45 120.406V212.331H215.38L200.407 213.4H126.611C115.202 213.4 104.864 215.894 95.5946 220.882C84.6494 226.507 75.0114 234.372 67.3073 243.964C59.6032 253.556 54.0055 264.662 50.8783 276.559C47.751 288.455 47.1643 300.877 49.1562 313.015C51.1481 325.153 55.674 336.736 62.4396 347.012C71.7087 361.976 84.5429 373.378 100.942 381.216C109.498 384.779 117.698 386.561 125.541 386.561H215.38L216.45 387.63Z" fill="black"/>
<path d="M418.589 272.189C418.589 267.937 416.898 263.858 413.89 260.852C410.881 257.845 406.801 256.156 402.546 256.156C398.479 256.427 394.668 258.235 391.887 261.213C389.106 264.191 387.563 268.115 387.573 272.189C387.824 276.075 389.482 279.737 392.238 282.491C394.993 285.245 398.657 286.902 402.546 287.153C406.622 287.162 410.548 285.621 413.528 282.841C416.507 280.062 418.317 276.253 418.589 272.189Z" fill="black"/>
</svg>
