<svg xmlns="http://www.w3.org/2000/svg" baseProfile="tiny" version="1.2" viewBox="0 0 1448 1448">
	<path fill="#fff"
		d="M1448 708v33q-6 211-121 385-84 126-216 210l-16 10q-131 78-282 97l-1-1V946l6-1h190l40-218v-2a1 1-73 0 0 0-1H812v-99c2-33 9-69 30-95 29-37 80-45 125-46l80 2 12 1a1 1 0 0 0 1-1V287a1 1 7 0 0-1-1l-25-5q-59-10-120-12h-46q-49 3-93 13c-35 8-70 22-100 42q-40 26-67 66c-33 49-49 108-55 167q-3 33-3 67l-1 100H401l-1 1v220h149v481a1 1-83 0 1 0 1q-145-37-262-126a726 726 0 0 1-204-241Q15 929 3 781l-2-20q-9-196 80-368A726 726 0 0 1 873 16l20 4q151 37 273 131a725 725 0 0 1 256 381q24 86 26 176Z" />
</svg>