<svg xmlns="http://www.w3.org/2000/svg" xmlns:xlink="http://www.w3.org/1999/xlink"><symbol viewBox="0 0 256 256" id="aid" xmlns="http://www.w3.org/2000/svg"><path d="M96 160H40a8 8 0 0 1-8-8v-48a8 8 0 0 1 8-8h56V40a8 8 0 0 1 8-8h48a8 8 0 0 1 8 8v56h56a8 8 0 0 1 8 8v48a8 8 0 0 1-8 8h-56v56a8 8 0 0 1-8 8h-48a8 8 0 0 1-8-8v-56Z" opacity=".2"/><path d="M96 160H40a8 8 0 0 1-8-8v-48a8 8 0 0 1 8-8h56V40a8 8 0 0 1 8-8h48a8 8 0 0 1 8 8v56h56a8 8 0 0 1 8 8v48a8 8 0 0 1-8 8h-56v56a8 8 0 0 1-8 8h-48a8 8 0 0 1-8-8v-56Z" fill="none" stroke="currentColor" stroke-linecap="round" stroke-linejoin="round" stroke-width="16"/></symbol><symbol viewBox="0 0 256 256" id="alien" xmlns="http://www.w3.org/2000/svg"><path fill="none" d="M0 0h256v256H0z"/><path d="M216 112c0 48.6-56 120-88 120s-88-71.4-88-120a88 88 0 0 1 176 0Z" fill="none" stroke="currentColor" stroke-linecap="round" stroke-linejoin="round" stroke-width="16"/><path d="M104 144h0a32 32 0 0 1-32-32h0a8 8 0 0 1 8-8h0a32 32 0 0 1 32 32h0a8 8 0 0 1-8 8ZM176 104h0a8 8 0 0 1 8 8v0a32 32 0 0 1-32 32h0a8 8 0 0 1-8-8v0a32 32 0 0 1 32-32ZM112 184h32" fill="none" stroke="currentColor" stroke-linecap="round" stroke-linejoin="round" stroke-width="16"/></symbol><symbol fill="currentColor" viewBox="0 0 256 256" id="arrow-circle-up-right" xmlns="http://www.w3.org/2000/svg"><path d="M224 128a96 96 0 1 1-96-96 96 96 0 0 1 96 96Z" opacity=".2"/><path d="M128 24a104 104 0 1 0 104 104A104.11 104.11 0 0 0 128 24Zm0 192a88 88 0 1 1 88-88 88.1 88.1 0 0 1-88 88Zm40-120v48a8 8 0 0 1-16 0v-28.69l-50.34 50.35a8 8 0 0 1-11.32-11.32L140.69 104H112a8 8 0 0 1 0-16h48a8 8 0 0 1 8 8Z"/></symbol><symbol viewBox="0 0 256 256" id="arrow-down-right" xmlns="http://www.w3.org/2000/svg"><path opacity=".2" d="M88 192h104V88L88 192z"/><path fill="none" stroke="currentColor" stroke-linecap="round" stroke-linejoin="round" stroke-width="16" d="m64 64 76 76M88 192h104V88L88 192z"/></symbol><symbol viewBox="0 0 256 256" id="arrows-clockwise" xmlns="http://www.w3.org/2000/svg"><path fill="none" d="M0 0h256v256H0z"/><path opacity=".2" d="M168 96h48V48l-48 48zM88 160H40v48l48-48z"/><path fill="none" stroke="currentColor" stroke-linecap="round" stroke-linejoin="round" stroke-width="16" d="M168 96h48V48l-48 48zM88 160H40v48l48-48z"/><path d="M192 192s-24 24-64 24c-29 0-51.52-15-66.54-29.46M64 64s24-24 64-24c29 0 51.52 15 66.54 29.46" fill="none" stroke="currentColor" stroke-linecap="round" stroke-linejoin="round" stroke-width="16"/></symbol><symbol viewBox="0 0 256 256" id="bird" xmlns="http://www.w3.org/2000/svg"><circle cx="164" cy="68" r="12" fill="currentColor"/><path fill="none" stroke="currentColor" stroke-linecap="round" stroke-linejoin="round" stroke-width="16" d="m120 136-40 48M208 96v24a96 96 0 0 1-96 96H8l96-120V76a52 52 0 0 1 102.33-13.11L232 80Z"/></symbol><symbol viewBox="0 0 256 256" id="calendar-plus" xmlns="http://www.w3.org/2000/svg"><path d="M216 88H40V48a8 8 0 0 1 8-8h160a8 8 0 0 1 8 8Z" opacity=".2"/><rect x="40" y="40" width="176" height="176" rx="8" fill="none" stroke="currentColor" stroke-linecap="round" stroke-linejoin="round" stroke-width="16"/><path fill="none" stroke="currentColor" stroke-linecap="round" stroke-linejoin="round" stroke-width="16" d="M176 24v32M80 24v32M40 88h176M152 152h-48M128 128v48"/></symbol><symbol viewBox="0 0 256 256" id="camera-plus" xmlns="http://www.w3.org/2000/svg"><path d="M208 208H48a16 16 0 0 1-16-16V80a16 16 0 0 1 16-16h32l16-24h64l16 24h32a16 16 0 0 1 16 16v112a16 16 0 0 1-16 16Z" opacity=".2"/><path d="M208 208H48a16 16 0 0 1-16-16V80a16 16 0 0 1 16-16h32l16-24h64l16 24h32a16 16 0 0 1 16 16v112a16 16 0 0 1-16 16ZM128 104v64M96 136h64" fill="none" stroke="currentColor" stroke-linecap="round" stroke-linejoin="round" stroke-width="16"/></symbol><symbol viewBox="0 0 256 256" id="carret-up-down" xmlns="http://www.w3.org/2000/svg"><path fill="none" stroke="currentColor" stroke-linecap="round" stroke-linejoin="round" stroke-width="16" d="m80 176 48 48 48-48M80 80l48-48 48 48"/></symbol><symbol viewBox="0 0 256 256" id="carrot" xmlns="http://www.w3.org/2000/svg"><path d="M43.81 223A8 8 0 0 1 33 212.19S64 112 104.4 72.4a56 56 0 0 1 79.2 79.2C144 192 43.81 223 43.81 223Z" opacity=".2"/><path fill="none" stroke="currentColor" stroke-linecap="round" stroke-linejoin="round" stroke-width="16" d="m224 32-40.4 40.4M43.81 223A8 8 0 0 1 33 212.19S64 112 104.4 72.4a56 56 0 0 1 79.2 79.2C144 192 43.81 223 43.81 223ZM232 72h-48.81M184 72.81V24M112 152l29.7 29.7M104.4 72.4 144 112"/></symbol><symbol viewBox="0 0 256 256" id="cat" xmlns="http://www.w3.org/2000/svg"><path fill="none" stroke="currentColor" stroke-linecap="round" stroke-linejoin="round" stroke-width="16" d="M128 192v32"/><circle cx="84" cy="140" r="12" fill="currentColor"/><circle cx="172" cy="140" r="12" fill="currentColor"/><path fill="none" stroke="currentColor" stroke-linecap="round" stroke-linejoin="round" stroke-width="16" d="M128 48v40M144 176l-16 16-16-16M96 53.01V88M160 53.01V88"/><path d="M67.6 67.6h0a102.87 102.87 0 0 1 120.8 0h0l21.94-25.24A8 8 0 0 1 224 48v88c0 48.6-43 88-96 88s-96-39.4-96-88V48a8 8 0 0 1 13.66-5.66Z" fill="none" stroke="currentColor" stroke-linecap="round" stroke-linejoin="round" stroke-width="16"/></symbol><symbol viewBox="0 0 256 256" id="check" xmlns="http://www.w3.org/2000/svg"><path fill="none" stroke="currentColor" stroke-linecap="round" stroke-linejoin="round" stroke-width="15" d="m40 144 56 56L224 72"/></symbol><symbol viewBox="0 0 256 256" id="check-fat" xmlns="http://www.w3.org/2000/svg"><path d="M98.34 141.66a8 8 0 0 0 11.32 0l92.68-91.32a8 8 0 0 1 11.32 0l24 23.6a8 8 0 0 1 0 11.32l-128.4 128.4a8 8 0 0 1-11.32 0l-71.6-72a8 8 0 0 1 0-11.31l24-24a8 8 0 0 1 11.32 0Z" opacity=".2"/><path d="M98.34 141.66a8 8 0 0 0 11.32 0l92.68-91.32a8 8 0 0 1 11.32 0l24 23.6a8 8 0 0 1 0 11.32l-128.4 128.4a8 8 0 0 1-11.32 0l-71.6-72a8 8 0 0 1 0-11.31l24-24a8 8 0 0 1 11.32 0Z" fill="none" stroke="currentColor" stroke-linecap="round" stroke-linejoin="round" stroke-width="16"/></symbol><symbol viewBox="0 0 256 256" id="chevron-left" xmlns="http://www.w3.org/2000/svg"><path fill="none" stroke="currentColor" stroke-linecap="round" stroke-linejoin="round" stroke-width="16" d="m160 208-80-80 80-80"/></symbol><symbol viewBox="0 0 256 256" id="dog" xmlns="http://www.w3.org/2000/svg"><path fill="none" stroke="currentColor" stroke-linecap="round" stroke-linejoin="round" stroke-width="16" d="M128 192v24M144 176l-16 16-16-16M104 48h48M104 48 50.37 32.24a8 8 0 0 0-9.8 6.29l-16.42 88c-1.54 8.23 9 13 14.16 6.42ZM152 48l53.63-15.76a8 8 0 0 1 9.8 6.29l16.42 88c1.54 8.23-9 13-14.16 6.42Z"/><circle cx="92" cy="140" r="12" fill="currentColor"/><circle cx="164" cy="140" r="12" fill="currentColor"/><path d="M208 120.38V184a32 32 0 0 1-32 32H80a32 32 0 0 1-32-32v-63.62" fill="none" stroke="currentColor" stroke-linecap="round" stroke-linejoin="round" stroke-width="16"/></symbol><symbol viewBox="0 0 256 256" id="fish" xmlns="http://www.w3.org/2000/svg"><circle cx="156" cy="76" r="12" fill="currentColor"/><path d="m8 175.87 56.07 16.06 16 56.07 24-56.07c138.6-3.29 121.84-124.08 116.2-150.08a8 8 0 0 0-6.13-6.13c-26-5.63-146.74-22.37-150.07 116.15Z" fill="none" stroke="currentColor" stroke-linecap="round" stroke-linejoin="round" stroke-width="16"/><path d="M185.82 167.62a44 44 0 0 1-49.62-47.82 44 44 0 0 1-47.82-49.59" fill="none" stroke="currentColor" stroke-linecap="round" stroke-linejoin="round" stroke-width="16"/></symbol><symbol viewBox="0 0 256 256" id="horse" xmlns="http://www.w3.org/2000/svg"><path d="M176 120a48 48 0 0 1-48 48" fill="none" stroke="currentColor" stroke-linecap="round" stroke-linejoin="round" stroke-width="16"/><circle cx="124" cy="100" r="12" fill="currentColor"/><path d="M64 200c17.43 15.6 40.59 24.48 65.94 24 51.48-1 93.33-43.13 94.05-94.61A96 96 0 0 0 128 32h-8v32L16 128l13.79 22a24 24 0 0 0 23.51 9.62c17.47-3 48.06-7.64 74.7 8.34h0l-35.87 49.36" fill="none" stroke="currentColor" stroke-linecap="round" stroke-linejoin="round" stroke-width="16"/></symbol><symbol viewBox="0 0 256 256" id="house-line" xmlns="http://www.w3.org/2000/svg"><path fill="none" d="M0 0h256v256H0z"/><path d="M216 216V115.54a8 8 0 0 0-2.62-5.92l-80-75.54a8 8 0 0 0-10.77 0l-80 75.54a8 8 0 0 0-2.61 5.92V216M16 216h224" fill="none" stroke="currentColor" stroke-linecap="round" stroke-linejoin="round" stroke-width="16"/><path d="M152 216v-56a8 8 0 0 0-8-8h-32a8 8 0 0 0-8 8v56" fill="none" stroke="currentColor" stroke-linecap="round" stroke-linejoin="round" stroke-width="16"/></symbol><symbol viewBox="0 0 256 256" id="info" xmlns="http://www.w3.org/2000/svg"><circle cx="128" cy="128" r="96" fill="none" stroke="currentColor" stroke-linecap="round" stroke-linejoin="round" stroke-width="16"/><path d="M120 120a8 8 0 0 1 8 8v40a8 8 0 0 0 8 8" fill="none" stroke="currentColor" stroke-linecap="round" stroke-linejoin="round" stroke-width="16"/><circle cx="124" cy="84" r="12" stroke="currentColor"/></symbol><symbol viewBox="0 0 256 256" id="install" xmlns="http://www.w3.org/2000/svg"><rect x="48" y="48" width="64" height="64" rx="8" opacity=".2"/><rect x="144" y="48" width="64" height="64" rx="8" opacity=".2"/><rect x="48" y="144" width="64" height="64" rx="8" opacity=".2"/><rect x="144" y="144" width="64" height="64" rx="8" opacity=".2"/><rect x="144" y="144" width="64" height="64" rx="8" fill="none" stroke="currentColor" stroke-linecap="round" stroke-linejoin="round" stroke-width="16"/><rect x="48" y="48" width="64" height="64" rx="8" fill="none" stroke="currentColor" stroke-linecap="round" stroke-linejoin="round" stroke-width="16"/><rect x="144" y="48" width="64" height="64" rx="8" fill="none" stroke="currentColor" stroke-linecap="round" stroke-linejoin="round" stroke-width="16"/><rect x="48" y="144" width="64" height="64" rx="8" fill="none" stroke="currentColor" stroke-linecap="round" stroke-linejoin="round" stroke-width="16"/></symbol><symbol viewBox="0 0 256 256" id="note" xmlns="http://www.w3.org/2000/svg"><path opacity=".2" d="M216 160h-56v56l56-56z"/><path fill="none" stroke="currentColor" stroke-linecap="round" stroke-linejoin="round" stroke-width="16" d="M96 96h64M96 128h64M96 160h32M156.69 216H48a8 8 0 0 1-8-8V48a8 8 0 0 1 8-8h160a8 8 0 0 1 8 8v108.69a8 8 0 0 1-2.34 5.65l-51.32 51.32a8 8 0 0 1-5.65 2.34Z"/><path fill="none" stroke="currentColor" stroke-linecap="round" stroke-linejoin="round" stroke-width="16" d="M215.28 159.99H160v55.29"/></symbol><symbol viewBox="0 0 597 573" fill="none" id="nouvet" xmlns="http://www.w3.org/2000/svg"><path d="M216.59 445.671v-57.732l-1.07-1.069h-89.839c-7.843 0-16.043-1.782-24.599-5.346-16.4-7.84-29.234-19.244-38.503-34.212a87.647 87.647 0 0 1-11.561-70.468 87.685 87.685 0 0 1 44.716-55.688c9.269-4.989 19.608-7.484 31.016-7.484h73.797l14.973-1.069h1.07v-91.945l1.069-12.829c5.348-22.451 21.39-40.627 40.642-51.318a77.027 77.027 0 0 1 87.7 12.83c17.112 23.775 10.695 61.262 7.487 68.746 0 0 6.773-15.29 33.155-40.95l9.625-6.414c7.487-3.207 16.043 1.07 19.252 8.553l1.069 9.622 3.209 86.599 2.139 3.207 12.834 10.692c11.765 10.691 20.321 23.52 28.877 37.419 2.852 4.989 7.486 8.909 13.904 11.76l54.545 23.521c7.486 3.207 16.043 9.622 16.043 18.175-1.07 16.037-3.209 32.074-9.626 47.041-11.765 25.659-35.294 47.042-63.101 53.456l-17.113 1.069h-71.657c-5.348 0-13.904 3.208-13.904 10.692v38.488c-1.07 18.175-8.556 34.212-20.321 48.11-14.26 15.681-32.442 24.234-54.545 25.659-20.321 1.069-38.503-5.345-54.546-19.244-9.982-9.266-17.468-19.957-22.459-32.073-3.209-8.553-4.278-17.106-4.278-27.798Z"/><path d="M216.45 387.63v57.72c0 10.689 1.069 19.24 4.278 27.791 4.991 12.114 12.478 22.803 22.46 32.067 16.043 13.895 34.224 20.309 54.545 19.24 22.104-1.425 40.285-9.976 54.546-25.654 11.764-13.895 19.251-29.929 20.32-48.1v-38.48c0-7.482 8.556-10.689 13.904-10.689h71.658l17.112-1.069c27.807-6.413 51.337-27.791 63.101-53.444 6.417-14.965 8.556-30.998 9.626-47.032 0-8.551-8.556-14.964-16.043-18.171l-54.545-23.516c-6.417-2.85-11.052-6.769-13.904-11.757-8.556-13.896-17.112-26.723-28.877-37.412l-12.834-10.689-2.139-3.206-3.209-86.581-1.069-9.62c-3.209-7.482-11.765-11.758-19.251-8.55l-9.626 6.413c-26.381 25.653-45.276 56.295-56.684 91.924-3.209 9.62-6.417 23.516-5.348 34.205 1.07 9.62 10.695 19.24 21.39 16.033 10.696-4.275 9.626-16.033 10.696-24.584 0-4.276 1.069-9.977 3.208-17.102 6.417-18.528 15.33-35.274 26.738-50.238.713-1.426 1.07-1.426 1.07 0l1.069 53.444 1.07 9.62c3.208 8.551 10.695 11.758 18.181 18.171 8.557 5.701 15.687 13.54 21.391 23.516l7.486 13.896c5.348 9.62 13.904 14.964 24.599 19.24l53.476 24.584a1.07 1.07 0 0 1 1.07 1.069c-4.279 26.723-20.321 51.307-47.059 57.72l-16.043 1.069h-54.545l-21.391 1.069c-18.181 2.138-36.363 16.034-37.433 36.343v40.618a45.95 45.95 0 0 1-12.484 28.703 46.006 46.006 0 0 1-58.477 6.957 45.965 45.965 0 0 1-18.878-24.971l-1.07-12.827v-55.583l-1.069-13.895c-2.139-9.62-11.765-17.103-21.39-20.309l-16.043-1.069h-85.561c-18.182-4.276-34.225-18.171-40.642-34.205-11.765-29.929 4.278-65.202 35.294-73.753l12.834-1.069h77.005c8.556 0 14.617-.713 18.182-2.138 5.704-2.138 10.695-5.701 14.973-10.689 6.417-6.413 6.417-13.896 6.417-22.447v-85.511c0-34.205 39.573-55.583 67.38-37.412 6.417 3.207 10.695 9.62 17.112 11.758 7.487 3.207 16.043 0 20.321-8.55 3.209-7.483-1.069-16.034-7.487-21.379a77.044 77.044 0 0 0-87.7-12.827c-19.251 10.69-35.294 28.86-40.642 51.307l-1.069 12.827v91.925h-1.07l-14.973 1.069h-73.796c-11.409 0-21.747 2.494-31.016 7.482a87.696 87.696 0 0 0-28.288 23.082 87.625 87.625 0 0 0-18.15 69.051 87.628 87.628 0 0 0 13.283 33.997c9.269 14.964 22.103 26.366 38.502 34.204 8.556 3.563 16.756 5.345 24.599 5.345h89.839l1.07 1.069Z" fill="currentColor"/><path d="M418.589 272.189a16.03 16.03 0 0 0-4.699-11.337 16.047 16.047 0 0 0-11.344-4.696 16.043 16.043 0 0 0-10.659 5.057 16.024 16.024 0 0 0-4.314 10.976 16.04 16.04 0 0 0 14.973 14.964 16.046 16.046 0 0 0 10.982-4.312 16.033 16.033 0 0 0 5.061-10.652Z" fill="currentColor"/></symbol><symbol fill="currentColor" viewBox="0 0 256 256" id="package" xmlns="http://www.w3.org/2000/svg"><path d="M128 129.09V232a8 8 0 0 1-3.84-1l-88-48.18a8 8 0 0 1-4.16-7V80.18a8 8 0 0 1 .7-3.25Z" opacity=".2"/><path d="m223.68 66.15-88-48.15a15.88 15.88 0 0 0-15.36 0l-88 48.17a16 16 0 0 0-8.32 14v95.64a16 16 0 0 0 8.32 14l88 48.17a15.88 15.88 0 0 0 15.36 0l88-48.17a16 16 0 0 0 8.32-14V80.18a16 16 0 0 0-8.32-14.03ZM128 32l80.34 44-29.77 16.3-80.35-44Zm0 88L47.66 76l33.9-18.56 80.34 44ZM40 90l80 43.78v85.79l-80-43.75Zm176 85.78-80 43.79v-85.75l32-17.51V152a8 8 0 0 0 16 0v-44.45L216 90v85.77Z"/></symbol><symbol viewBox="0 0 256 256" id="paw-print" xmlns="http://www.w3.org/2000/svg"><circle cx="212" cy="108" r="20" fill="none" stroke="currentColor" stroke-linecap="round" stroke-linejoin="round" stroke-width="16"/><circle cx="44" cy="108" r="20" fill="none" stroke="currentColor" stroke-linecap="round" stroke-linejoin="round" stroke-width="16"/><circle cx="92" cy="60" r="20" fill="none" stroke="currentColor" stroke-linecap="round" stroke-linejoin="round" stroke-width="16"/><circle cx="164" cy="60" r="20" fill="none" stroke="currentColor" stroke-linecap="round" stroke-linejoin="round" stroke-width="16"/><path d="M128 104a36 36 0 0 0-34.57 26 43.49 43.49 0 0 1-20.67 25.9 32 32 0 0 0 27.73 57.62 72.49 72.49 0 0 1 55 0 32 32 0 0 0 27.73-57.62 43.46 43.46 0 0 1-20.65-25.9A36 36 0 0 0 128 104Z" fill="none" stroke="currentColor" stroke-linecap="round" stroke-linejoin="round" stroke-width="16"/></symbol><symbol viewBox="0 0 256 256" id="pencil" xmlns="http://www.w3.org/2000/svg"><path d="m192 120-56-56 29.66-29.66a8 8 0 0 1 11.31 0L221.66 79a8 8 0 0 1 0 11.31Z" opacity=".2"/><path d="M92.69 216H48a8 8 0 0 1-8-8v-44.69a8 8 0 0 1 2.34-5.65L165.66 34.34a8 8 0 0 1 11.31 0L221.66 79a8 8 0 0 1 0 11.31L98.34 213.66a8 8 0 0 1-5.65 2.34ZM136 64l56 56" fill="none" stroke="currentColor" stroke-linecap="round" stroke-linejoin="round" stroke-width="16"/></symbol><symbol viewBox="0 0 256 256" id="plus" xmlns="http://www.w3.org/2000/svg"><path fill="none" stroke="currentColor" stroke-linecap="round" stroke-linejoin="round" stroke-width="16" d="M40 128h176M128 40v176"/></symbol><symbol viewBox="0 0 256 256" id="plus-circle" xmlns="http://www.w3.org/2000/svg"><circle cx="128" cy="128" r="96" opacity=".2"/><circle cx="128" cy="128" r="96" fill="none" stroke="currentColor" stroke-miterlimit="10" stroke-width="16"/><path fill="none" stroke="currentColor" stroke-linecap="round" stroke-linejoin="round" stroke-width="16" d="M88 128h80M128 88v80"/></symbol><symbol viewBox="0 0 256 256" id="qr-code" xmlns="http://www.w3.org/2000/svg"><rect x="48" y="48" width="64" height="64" rx="8" opacity=".2"/><rect x="48" y="144" width="64" height="64" rx="8" opacity=".2"/><rect x="144" y="48" width="64" height="64" rx="8" opacity=".2"/><rect x="48" y="48" width="64" height="64" rx="8" fill="none" stroke="currentColor" stroke-linecap="round" stroke-linejoin="round" stroke-width="16"/><rect x="48" y="144" width="64" height="64" rx="8" fill="none" stroke="currentColor" stroke-linecap="round" stroke-linejoin="round" stroke-width="16"/><rect x="144" y="48" width="64" height="64" rx="8" fill="none" stroke="currentColor" stroke-linecap="round" stroke-linejoin="round" stroke-width="16"/><path fill="none" stroke="currentColor" stroke-linecap="round" stroke-linejoin="round" stroke-width="16" d="M144 144v32M144 208h32v-64M176 160h32M208 192v16"/></symbol><symbol viewBox="0 0 32 32" id="rabbit" xmlns="http://www.w3.org/2000/svg"><circle cx="24" cy="16" r="1" fill="currentColor"/><path fill="currentColor" d="M11 12h.844l.156-.002V12h5.6c.135-.265.291-.518.466-.756l-1.904-2.35a3.002 3.002 0 0 1 4.497-3.97l7.173 7.46A6 6 0 0 1 24.105 23a4 4 0 0 1-4 4H11a5 5 0 0 1-5-5v-2.1A5.002 5.002 0 0 1 7 10a4.99 4.99 0 0 1 4 2m8.218-5.69a1.002 1.002 0 0 0-1.502 1.325l3.008 3.713-.658.636a3.503 3.503 0 0 0-.867 1.35l-.236.666h-7.09A4 4 0 0 0 8 17.998V22a3 3 0 0 0 3 3h5v-.5a2.5 2.5 0 0 0-2.5-2.5H12a1 1 0 1 1 0-2h1.5a4.5 4.5 0 0 1 4.5 4.5v.5h2.105a2 2 0 0 0 2-2v-2.277l1.178.213a4 4 0 0 0 3.238-7.042l-.047-.038zM6.002 17.83a5.998 5.998 0 0 1 3.023-5.043 3 3 0 1 0-3.023 5.044"/></symbol><symbol viewBox="0 0 512 512" fill="none" id="rodent" xmlns="http://www.w3.org/2000/svg"><path d="M200.284 257.57c-9.509 0-17.227 7.718-17.227 17.227v20.673a17.228 17.228 0 0 0 34.455 0v-20.673c0-9.509-7.718-17.227-17.228-17.227Zm112.405 0c-9.509 0-17.227 7.718-17.227 17.227v20.673a17.228 17.228 0 0 0 34.455 0v-20.673c0-9.509-7.718-17.227-17.228-17.227Zm-34.344 76.862c0 6.725-12.817 23.484-21.748 23.484-9.565 0-21.968-15.298-21.968-23.471 0-8.186 9.688-8.944 21.968-8.944 12.266 0 21.748.551 21.748 8.944m-43.013 62.584c8.062.565 15.711-3.198 21.155-10.847 5.471 7.622 13.12 11.357 21.21 10.75 11.439-.882 21.031-10.75 20.094-23.994a6.882 6.882 0 0 0-2.282-4.871 6.876 6.876 0 0 0-5.087-1.748 6.897 6.897 0 0 0-6.105 4.852 6.9 6.9 0 0 0-.267 2.732c.386 5.499-3.335 8.958-7.414 9.275-3.377.262-9.923-1.847-13.134-14.664a6.887 6.887 0 0 0-7.015-5.209 6.887 6.887 0 0 0-7.015 5.209c-3.211 12.817-9.785 15.008-13.189 14.774-4.039-.275-7.746-3.693-7.36-9.165a6.894 6.894 0 0 0-6.372-7.583 6.898 6.898 0 0 0-6.723 3.951 6.886 6.886 0 0 0-.645 2.668c-.938 13.244 8.682 23.084 20.149 23.87Z" fill="currentColor"/><path d="M246.495 134.526a113.57 113.57 0 0 1 20.039-.248 106.375 106.375 0 0 1 66.52-77.429 106.383 106.383 0 0 1 88.526 192.907c5.016 8.572 9.44 17.213 13.189 25.717 8.31 18.881 14.016 38.906 14.016 57.25 0 46.486-22.437 79.797-50.442 100.621-27.012 20.121-59.799 29.217-85.006 29.217-27.454 0-42.255-6.477-52.509-11.177-.996-.463-1.997-.913-3.004-1.35l-.248-.111c-1.279.467-2.552.949-3.818 1.448-12.045 4.727-29.479 11.204-64.885 11.204-28.845 0-59.634-13.644-82.967-35.364-23.829-22.189-41.938-54.755-41.938-94.488 0-18.882 6.243-39.168 15.036-57.995 3.804-8.131 8.255-16.359 13.244-24.517a106.389 106.389 0 0 1-55.938-85.71A106.38 106.38 0 0 1 179.876 56.826a106.386 106.386 0 0 1 66.619 77.7Zm-26.971 5.733a78.836 78.836 0 0 0-85.243-62.221 78.833 78.833 0 0 0-70.74 78.318 78.818 78.818 0 0 0 73.25 78.626 274.472 274.472 0 0 0-18.192 25.083c-16.745 26.13-27.081 52.605-27.081 72.658 0 61.797 55.996 102.289 97.341 102.289 31.106 0 45.067-5.472 54.824-9.303 5.238-2.054 9.262-3.625 14.085-3.625 5.279 0 9.413 1.902 14.527 4.231 8.227 3.776 18.977 8.683 41.028 8.683 38.975 0 107.885-29.287 107.885-102.275 0-19.819-9.648-46.514-25.745-72.906a265.146 265.146 0 0 0-17.296-25.001 78.807 78.807 0 0 0 64.698-109.945 78.816 78.816 0 0 0-148.323 10.873 78.809 78.809 0 0 0-1.905 32.106 107.03 107.03 0 0 0-28.253-6.091 86.182 86.182 0 0 0-15.794.275 108.352 108.352 0 0 0-28.487 7.305 79.316 79.316 0 0 0-.579-29.08Z" fill="currentColor"/><circle cx="142" cy="154" opacity=".2" r="49" fill="currentColor"/><circle cx="372" cy="154" opacity=".2" r="49" fill="currentColor"/></symbol><symbol viewBox="0 0 256 256" id="scales" xmlns="http://www.w3.org/2000/svg"><path d="M24 168c0 17.67 20 24 32 24s32-6.33 32-24L56 88ZM168 136c0 17.67 20 24 32 24s32-6.33 32-24l-32-80Z" opacity=".2"/><path fill="none" stroke="currentColor" stroke-linecap="round" stroke-linejoin="round" stroke-width="16" d="M128 40v176M104 216h48M56 88l144-32M24 168c0 17.67 20 24 32 24s32-6.33 32-24L56 88ZM168 136c0 17.67 20 24 32 24s32-6.33 32-24l-32-80Z"/></symbol><symbol fill="currentColor" viewBox="0 0 256 256" id="scroll" xmlns="http://www.w3.org/2000/svg"><path d="M224 192a24 24 0 0 1-24 24H88a24 24 0 0 0 24-24c0-10-8-16-8-16h112s8 6 8 16Z" opacity=".2"/><path d="M96 104a8 8 0 0 1 8-8h64a8 8 0 0 1 0 16h-64a8 8 0 0 1-8-8Zm8 40h64a8 8 0 0 0 0-16h-64a8 8 0 0 0 0 16Zm128 48a32 32 0 0 1-32 32H88a32 32 0 0 1-32-32V64a16 16 0 0 0-32 0c0 5.74 4.83 9.62 4.88 9.66A8 8 0 0 1 24 88a7.89 7.89 0 0 1-4.79-1.61C18.05 85.54 8 77.61 8 64a32 32 0 0 1 32-32h136a32 32 0 0 1 32 32v104h8a8 8 0 0 1 4.8 1.6c1.2.86 11.2 8.79 11.2 22.4ZM96.26 173.48A8.07 8.07 0 0 1 104 168h88V64a16 16 0 0 0-16-16H67.69A31.71 31.71 0 0 1 72 64v128a16 16 0 0 0 32 0c0-5.74-4.83-9.62-4.88-9.66a7.82 7.82 0 0 1-2.86-8.86ZM216 192a12.58 12.58 0 0 0-3.23-8h-94a26.92 26.92 0 0 1 1.21 8 31.82 31.82 0 0 1-4.29 16H200a16 16 0 0 0 16-16Z"/></symbol><symbol viewBox="0 0 256 256" id="seal-warning" xmlns="http://www.w3.org/2000/svg"><path d="M54.46 201.54c-9.2-9.2-3.1-28.53-7.78-39.85C41.82 150 24 140.5 24 128s17.82-22 22.68-33.69c4.68-11.31-1.42-30.65 7.78-39.85s28.54-3.1 39.85-7.78C106.05 41.82 115.5 24 128 24s22 17.82 33.69 22.68c11.32 4.68 30.65-1.42 39.85 7.78s3.1 28.53 7.78 39.85C214.18 106.05 232 115.5 232 128s-17.82 22-22.68 33.69c-4.68 11.32 1.42 30.65-7.78 39.85s-28.53 3.1-39.85 7.78C150 214.18 140.5 232 128 232s-22-17.82-33.69-22.68c-11.31-4.68-30.65 1.42-39.85-7.78Z" opacity=".2"/><path d="M54.46 201.54c-9.2-9.2-3.1-28.53-7.78-39.85C41.82 150 24 140.5 24 128s17.82-22 22.68-33.69c4.68-11.31-1.42-30.65 7.78-39.85s28.54-3.1 39.85-7.78C106.05 41.82 115.5 24 128 24s22 17.82 33.69 22.68c11.32 4.68 30.65-1.42 39.85 7.78s3.1 28.53 7.78 39.85C214.18 106.05 232 115.5 232 128s-17.82 22-22.68 33.69c-4.68 11.32 1.42 30.65-7.78 39.85s-28.53 3.1-39.85 7.78C150 214.18 140.5 232 128 232s-22-17.82-33.69-22.68c-11.31-4.68-30.65 1.42-39.85-7.78ZM128 80v56" fill="none" stroke="currentColor" stroke-linecap="round" stroke-linejoin="round" stroke-width="16"/><circle cx="128" cy="172" r="12"/></symbol><symbol viewBox="0 0 256 256" id="share-network" xmlns="http://www.w3.org/2000/svg"><circle cx="176" cy="200" r="32" opacity=".2"/><circle cx="176" cy="56" r="32" opacity=".2"/><path fill="none" stroke="currentColor" stroke-linecap="round" stroke-linejoin="round" stroke-width="16" d="m149.09 73.3-58.18 37.4M90.91 145.3l58.18 37.4"/><circle cx="64" cy="128" r="32" fill="none" stroke="currentColor" stroke-linecap="round" stroke-linejoin="round" stroke-width="16"/><circle cx="176" cy="200" r="32" fill="none" stroke="currentColor" stroke-linecap="round" stroke-linejoin="round" stroke-width="16"/><circle cx="176" cy="56" r="32" fill="none" stroke="currentColor" stroke-linecap="round" stroke-linejoin="round" stroke-width="16"/></symbol><symbol viewBox="0 0 256 256" id="sign-out" xmlns="http://www.w3.org/2000/svg"><path opacity=".2" d="m176 88 40 40-40 40V88z"/><path d="M104 40H48a8 8 0 0 0-8 8v160a8 8 0 0 0 8 8h56M104 128h72M176 88l40 40-40 40V88z" fill="none" stroke="currentColor" stroke-linecap="round" stroke-linejoin="round" stroke-width="16"/></symbol><symbol fill="currentColor" viewBox="0 0 256 256" id="stack" xmlns="http://www.w3.org/2000/svg"><path d="M192 88v112a8 8 0 0 1-8 8H40a8 8 0 0 1-8-8V88a8 8 0 0 1 8-8h144a8 8 0 0 1 8 8Z" opacity=".2"/><path d="M184 72H40a16 16 0 0 0-16 16v112a16 16 0 0 0 16 16h144a16 16 0 0 0 16-16V88a16 16 0 0 0-16-16Zm0 128H40V88h144v112Zm48-144v120a8 8 0 0 1-16 0V56H64a8 8 0 0 1 0-16h152a16 16 0 0 1 16 16Z"/></symbol><symbol viewBox="0 0 256 256" id="support" xmlns="http://www.w3.org/2000/svg"><path d="M195.88 60.12a96 96 0 0 1 0 135.76l-39.6-39.6a40 40 0 0 0 0-56.56ZM60.12 195.88a96 96 0 0 1 0-135.76l39.6 39.6a40 40 0 0 0 0 56.56Z" opacity=".2"/><circle cx="128" cy="128" r="96" fill="none" stroke="currentColor" stroke-linecap="round" stroke-linejoin="round" stroke-width="16"/><circle cx="128" cy="128" r="40" fill="none" stroke="currentColor" stroke-linecap="round" stroke-linejoin="round" stroke-width="16"/><path fill="none" stroke="currentColor" stroke-linecap="round" stroke-linejoin="round" stroke-width="16" d="m99.72 99.72-39.6-39.6M156.28 99.72l39.6-39.6M156.28 156.28l39.6 39.6M99.72 156.28l-39.6 39.6"/></symbol><symbol viewBox="0 0 256 256" id="user-circle" xmlns="http://www.w3.org/2000/svg"><path d="M128 32a96 96 0 0 0-64.2 167.38A72 72 0 0 1 128 160a40 40 0 1 1 40-40 40 40 0 0 1-40 40 72 72 0 0 1 64.2 39.37A96 96 0 0 0 128 32Z" opacity=".2"/><path d="M63.8 199.37a72 72 0 0 1 128.4 0" fill="none" stroke="currentColor" stroke-linecap="round" stroke-linejoin="round" stroke-width="16"/><circle cx="128" cy="128" r="96" fill="none" stroke="currentColor" stroke-linecap="round" stroke-linejoin="round" stroke-width="16"/><circle cx="128" cy="120" r="40" fill="none" stroke="currentColor" stroke-linecap="round" stroke-linejoin="round" stroke-width="16"/></symbol><symbol viewBox="0 0 256 256" id="x" xmlns="http://www.w3.org/2000/svg"><path stroke="currentColor" stroke-linecap="round" stroke-linejoin="round" stroke-width="16" d="M200 56 56 200M200 200 56 56"/></symbol></svg>