<svg viewBox="0 0 512 512" fill="none" xmlns="http://www.w3.org/2000/svg">
  <path
    d="M200.284 257.57C190.775 257.57 183.057 265.288 183.057 274.797V295.47C183.057 300.039 184.872 304.421 188.103 307.652C191.334 310.882 195.715 312.698 200.284 312.698C204.853 312.698 209.235 310.882 212.466 307.652C215.697 304.421 217.512 300.039 217.512 295.47V274.797C217.512 265.288 209.794 257.57 200.284 257.57ZM312.689 257.57C303.18 257.57 295.462 265.288 295.462 274.797V295.47C295.462 300.039 297.277 304.421 300.508 307.652C303.738 310.882 308.12 312.698 312.689 312.698C317.258 312.698 321.64 310.882 324.871 307.652C328.101 304.421 329.917 300.039 329.917 295.47V274.797C329.917 265.288 322.199 257.57 312.689 257.57ZM278.345 334.432C278.345 341.157 265.528 357.916 256.597 357.916C247.032 357.916 234.629 342.618 234.629 334.445C234.629 326.259 244.317 325.501 256.597 325.501C268.863 325.501 278.345 326.052 278.345 334.445M235.332 397.029C243.394 397.594 251.043 393.831 256.487 386.182C261.958 393.804 269.607 397.539 277.697 396.932C289.136 396.05 298.728 386.182 297.791 372.938C297.757 372.015 297.537 371.107 297.145 370.271C296.753 369.434 296.197 368.684 295.509 368.067C294.822 367.449 294.017 366.976 293.143 366.676C292.269 366.376 291.344 366.255 290.422 366.319C289.5 366.384 288.601 366.634 287.778 367.053C286.954 367.472 286.223 368.053 285.629 368.76C285.034 369.468 284.588 370.288 284.317 371.171C284.046 372.055 283.955 372.984 284.05 373.903C284.436 379.402 280.715 382.861 276.636 383.178C273.259 383.44 266.713 381.331 263.502 368.514C263.115 366.969 262.204 365.605 260.926 364.655C259.647 363.705 258.078 363.228 256.487 363.305C254.896 363.228 253.327 363.705 252.048 364.655C250.769 365.605 249.859 366.969 249.472 368.514C246.261 381.331 239.687 383.522 236.283 383.288C232.244 383.013 228.537 379.595 228.923 374.123C229.018 373.204 228.927 372.275 228.656 371.392C228.385 370.508 227.939 369.688 227.345 368.981C226.75 368.273 226.019 367.693 225.196 367.273C224.373 366.854 223.473 366.605 222.551 366.54C221.63 366.475 220.704 366.596 219.83 366.897C218.956 367.197 218.152 367.67 217.464 368.287C216.777 368.905 216.22 369.654 215.828 370.491C215.436 371.328 215.217 372.235 215.183 373.159C214.245 386.403 223.865 396.243 235.332 397.029Z"
    fill="currentColor" />
  <path
    d="M246.495 134.526C253.154 133.853 259.86 133.77 266.534 134.278C270.241 116.829 278.276 100.594 289.9 87.0636C301.524 73.5335 316.364 63.1434 333.054 56.8491C349.744 50.5549 367.749 48.5584 385.413 51.0434C403.077 53.5284 419.832 60.415 434.138 71.07C448.444 81.7249 459.84 95.806 467.28 112.018C474.72 128.23 477.964 146.053 476.713 163.846C475.463 181.64 469.758 198.834 460.124 213.846C450.489 228.858 437.235 241.207 421.58 249.756C426.596 258.328 431.02 266.969 434.769 275.473C443.079 294.354 448.785 314.379 448.785 332.723C448.785 379.209 426.348 412.52 398.343 433.344C371.331 453.465 338.544 462.561 313.337 462.561C285.883 462.561 271.082 456.084 260.828 451.384C259.832 450.921 258.831 450.471 257.824 450.034L257.576 449.923C256.297 450.39 255.024 450.872 253.758 451.371C241.713 456.098 224.279 462.575 188.873 462.575C160.028 462.575 129.239 448.931 105.906 427.211C82.0773 405.022 63.968 372.456 63.968 332.723C63.968 313.841 70.2112 293.555 79.004 274.728C82.8078 266.597 87.2593 258.369 92.2483 250.211C76.4698 241.78 63.0721 229.506 53.2946 214.525C43.5171 199.543 37.6755 182.338 36.3103 164.501C34.945 146.663 38.1001 128.77 45.4838 112.475C52.8674 96.1799 64.2412 82.0103 78.5529 71.2765C92.8646 60.5427 109.652 53.5914 127.363 51.0656C145.073 48.5399 163.135 50.5212 179.876 56.8264C196.618 63.1315 211.499 73.5569 223.144 87.138C234.788 100.719 242.819 117.018 246.495 134.526ZM219.524 140.259C215.52 121.185 204.592 104.27 188.85 92.7793C173.108 81.2887 153.667 76.0368 134.281 78.0375C114.894 80.0382 96.9352 89.1496 83.8714 103.613C70.8077 118.076 63.5648 136.866 63.5407 156.356C63.5397 176.297 71.0971 195.497 84.6898 210.087C98.2826 224.677 116.9 233.573 136.791 234.982C130.26 242.993 124.186 251.368 118.599 260.065C101.854 286.195 91.5179 312.67 91.5179 332.723C91.5179 394.52 147.514 435.012 188.859 435.012C219.965 435.012 233.926 429.54 243.683 425.709C248.921 423.655 252.945 422.084 257.768 422.084C263.047 422.084 267.181 423.986 272.295 426.315C280.522 430.091 291.272 434.998 313.323 434.998C352.298 434.998 421.208 405.711 421.208 332.723C421.208 312.904 411.56 286.209 395.463 259.817C390.18 251.159 384.406 242.812 378.167 234.816C397.675 232.941 415.785 223.865 428.962 209.358C442.138 194.851 449.437 175.954 449.433 156.356C449.431 145.521 447.195 134.803 442.865 124.871C438.535 114.938 432.204 106.006 424.267 98.6302C416.329 91.2547 406.957 85.5949 396.734 82.0043C386.511 78.4137 375.658 76.9693 364.852 77.7615C354.046 78.5536 343.519 81.5652 333.929 86.6082C324.34 91.6512 315.892 98.6173 309.116 107.071C302.339 115.526 297.378 125.286 294.542 135.744C291.707 146.201 291.058 157.131 292.637 167.85C283.538 164.552 274.033 162.502 264.384 161.759C259.122 161.367 253.835 161.459 248.59 162.034C238.806 163.163 229.222 165.621 220.103 169.339C221.704 159.693 221.508 149.834 219.524 140.259Z"
    fill="currentColor" />
  <circle cx="142" cy="154" opacity="0.2" r="49" fill="currentColor" />
  <circle cx="372" cy="154" opacity="0.2" r="49" fill="currentColor" />
</svg>
  