<svg xmlns="http://www.w3.org/2000/svg" xmlns:xlink="http://www.w3.org/1999/xlink"><symbol fill="currentColor" viewBox="0 0 256 256" id="arrow-circle-up-right" xmlns="http://www.w3.org/2000/svg"><path d="M224 128a96 96 0 1 1-96-96 96 96 0 0 1 96 96Z" opacity=".2"/><path d="M128 24a104 104 0 1 0 104 104A104.11 104.11 0 0 0 128 24Zm0 192a88 88 0 1 1 88-88 88.1 88.1 0 0 1-88 88Zm40-120v48a8 8 0 0 1-16 0v-28.69l-50.34 50.35a8 8 0 0 1-11.32-11.32L140.69 104H112a8 8 0 0 1 0-16h48a8 8 0 0 1 8 8Z"/></symbol><symbol viewBox="0 0 256 256" id="carret-up-down" xmlns="http://www.w3.org/2000/svg"><path fill="none" stroke="currentColor" stroke-linecap="round" stroke-linejoin="round" stroke-width="16" d="m80 176 48 48 48-48M80 80l48-48 48 48"/></symbol><symbol viewBox="0 0 256 256" id="chevron-left" xmlns="http://www.w3.org/2000/svg"><path fill="none" stroke="currentColor" stroke-linecap="round" stroke-linejoin="round" stroke-width="16" d="m160 208-80-80 80-80"/></symbol><symbol viewBox="0 0 256 256" id="house-line" xmlns="http://www.w3.org/2000/svg"><path fill="none" d="M0 0h256v256H0z"/><path d="M216 216V115.54a8 8 0 0 0-2.62-5.92l-80-75.54a8 8 0 0 0-10.77 0l-80 75.54a8 8 0 0 0-2.61 5.92V216M16 216h224" fill="none" stroke="currentColor" stroke-linecap="round" stroke-linejoin="round" stroke-width="16"/><path d="M152 216v-56a8 8 0 0 0-8-8h-32a8 8 0 0 0-8 8v56" fill="none" stroke="currentColor" stroke-linecap="round" stroke-linejoin="round" stroke-width="16"/></symbol><symbol viewBox="0 0 597 573" fill="none" id="nouvet" xmlns="http://www.w3.org/2000/svg"><path d="M216.59 445.671v-57.732l-1.07-1.069h-89.839c-7.843 0-16.043-1.782-24.599-5.346-16.4-7.84-29.234-19.244-38.503-34.212a87.647 87.647 0 0 1-11.561-70.468 87.685 87.685 0 0 1 44.716-55.688c9.269-4.989 19.608-7.484 31.016-7.484h73.797l14.973-1.069h1.07v-91.945l1.069-12.829c5.348-22.451 21.39-40.627 40.642-51.318a77.027 77.027 0 0 1 87.7 12.83c17.112 23.775 10.695 61.262 7.487 68.746 0 0 6.773-15.29 33.155-40.95l9.625-6.414c7.487-3.207 16.043 1.07 19.252 8.553l1.069 9.622 3.209 86.599 2.139 3.207 12.834 10.692c11.765 10.691 20.321 23.52 28.877 37.419 2.852 4.989 7.486 8.909 13.904 11.76l54.545 23.521c7.486 3.207 16.043 9.622 16.043 18.175-1.07 16.037-3.209 32.074-9.626 47.041-11.765 25.659-35.294 47.042-63.101 53.456l-17.113 1.069h-71.657c-5.348 0-13.904 3.208-13.904 10.692v38.488c-1.07 18.175-8.556 34.212-20.321 48.11-14.26 15.681-32.442 24.234-54.545 25.659-20.321 1.069-38.503-5.345-54.546-19.244-9.982-9.266-17.468-19.957-22.459-32.073-3.209-8.553-4.278-17.106-4.278-27.798Z"/><path d="M216.45 387.63v57.72c0 10.689 1.069 19.24 4.278 27.791 4.991 12.114 12.478 22.803 22.46 32.067 16.043 13.895 34.224 20.309 54.545 19.24 22.104-1.425 40.285-9.976 54.546-25.654 11.764-13.895 19.251-29.929 20.32-48.1v-38.48c0-7.482 8.556-10.689 13.904-10.689h71.658l17.112-1.069c27.807-6.413 51.337-27.791 63.101-53.444 6.417-14.965 8.556-30.998 9.626-47.032 0-8.551-8.556-14.964-16.043-18.171l-54.545-23.516c-6.417-2.85-11.052-6.769-13.904-11.757-8.556-13.896-17.112-26.723-28.877-37.412l-12.834-10.689-2.139-3.206-3.209-86.581-1.069-9.62c-3.209-7.482-11.765-11.758-19.251-8.55l-9.626 6.413c-26.381 25.653-45.276 56.295-56.684 91.924-3.209 9.62-6.417 23.516-5.348 34.205 1.07 9.62 10.695 19.24 21.39 16.033 10.696-4.275 9.626-16.033 10.696-24.584 0-4.276 1.069-9.977 3.208-17.102 6.417-18.528 15.33-35.274 26.738-50.238.713-1.426 1.07-1.426 1.07 0l1.069 53.444 1.07 9.62c3.208 8.551 10.695 11.758 18.181 18.171 8.557 5.701 15.687 13.54 21.391 23.516l7.486 13.896c5.348 9.62 13.904 14.964 24.599 19.24l53.476 24.584a1.07 1.07 0 0 1 1.07 1.069c-4.279 26.723-20.321 51.307-47.059 57.72l-16.043 1.069h-54.545l-21.391 1.069c-18.181 2.138-36.363 16.034-37.433 36.343v40.618a45.95 45.95 0 0 1-12.484 28.703 46.006 46.006 0 0 1-58.477 6.957 45.965 45.965 0 0 1-18.878-24.971l-1.07-12.827v-55.583l-1.069-13.895c-2.139-9.62-11.765-17.103-21.39-20.309l-16.043-1.069h-85.561c-18.182-4.276-34.225-18.171-40.642-34.205-11.765-29.929 4.278-65.202 35.294-73.753l12.834-1.069h77.005c8.556 0 14.617-.713 18.182-2.138 5.704-2.138 10.695-5.701 14.973-10.689 6.417-6.413 6.417-13.896 6.417-22.447v-85.511c0-34.205 39.573-55.583 67.38-37.412 6.417 3.207 10.695 9.62 17.112 11.758 7.487 3.207 16.043 0 20.321-8.55 3.209-7.483-1.069-16.034-7.487-21.379a77.044 77.044 0 0 0-87.7-12.827c-19.251 10.69-35.294 28.86-40.642 51.307l-1.069 12.827v91.925h-1.07l-14.973 1.069h-73.796c-11.409 0-21.747 2.494-31.016 7.482a87.696 87.696 0 0 0-28.288 23.082 87.625 87.625 0 0 0-18.15 69.051 87.628 87.628 0 0 0 13.283 33.997c9.269 14.964 22.103 26.366 38.502 34.204 8.556 3.563 16.756 5.345 24.599 5.345h89.839l1.07 1.069Z" fill="currentColor"/><path d="M418.589 272.189a16.03 16.03 0 0 0-4.699-11.337 16.047 16.047 0 0 0-11.344-4.696 16.043 16.043 0 0 0-10.659 5.057 16.024 16.024 0 0 0-4.314 10.976 16.04 16.04 0 0 0 14.973 14.964 16.046 16.046 0 0 0 10.982-4.312 16.033 16.033 0 0 0 5.061-10.652Z" fill="currentColor"/></symbol><symbol fill="currentColor" viewBox="0 0 256 256" id="package" xmlns="http://www.w3.org/2000/svg"><path d="M128 129.09V232a8 8 0 0 1-3.84-1l-88-48.18a8 8 0 0 1-4.16-7V80.18a8 8 0 0 1 .7-3.25Z" opacity=".2"/><path d="m223.68 66.15-88-48.15a15.88 15.88 0 0 0-15.36 0l-88 48.17a16 16 0 0 0-8.32 14v95.64a16 16 0 0 0 8.32 14l88 48.17a15.88 15.88 0 0 0 15.36 0l88-48.17a16 16 0 0 0 8.32-14V80.18a16 16 0 0 0-8.32-14.03ZM128 32l80.34 44-29.77 16.3-80.35-44Zm0 88L47.66 76l33.9-18.56 80.34 44ZM40 90l80 43.78v85.79l-80-43.75Zm176 85.78-80 43.79v-85.75l32-17.51V152a8 8 0 0 0 16 0v-44.45L216 90v85.77Z"/></symbol><symbol fill="currentColor" viewBox="0 0 256 256" id="scroll" xmlns="http://www.w3.org/2000/svg"><path d="M224 192a24 24 0 0 1-24 24H88a24 24 0 0 0 24-24c0-10-8-16-8-16h112s8 6 8 16Z" opacity=".2"/><path d="M96 104a8 8 0 0 1 8-8h64a8 8 0 0 1 0 16h-64a8 8 0 0 1-8-8Zm8 40h64a8 8 0 0 0 0-16h-64a8 8 0 0 0 0 16Zm128 48a32 32 0 0 1-32 32H88a32 32 0 0 1-32-32V64a16 16 0 0 0-32 0c0 5.74 4.83 9.62 4.88 9.66A8 8 0 0 1 24 88a7.89 7.89 0 0 1-4.79-1.61C18.05 85.54 8 77.61 8 64a32 32 0 0 1 32-32h136a32 32 0 0 1 32 32v104h8a8 8 0 0 1 4.8 1.6c1.2.86 11.2 8.79 11.2 22.4ZM96.26 173.48A8.07 8.07 0 0 1 104 168h88V64a16 16 0 0 0-16-16H67.69A31.71 31.71 0 0 1 72 64v128a16 16 0 0 0 32 0c0-5.74-4.83-9.62-4.88-9.66a7.82 7.82 0 0 1-2.86-8.86ZM216 192a12.58 12.58 0 0 0-3.23-8h-94a26.92 26.92 0 0 1 1.21 8 31.82 31.82 0 0 1-4.29 16H200a16 16 0 0 0 16-16Z"/></symbol><symbol fill="currentColor" viewBox="0 0 256 256" id="stack" xmlns="http://www.w3.org/2000/svg"><path d="M192 88v112a8 8 0 0 1-8 8H40a8 8 0 0 1-8-8V88a8 8 0 0 1 8-8h144a8 8 0 0 1 8 8Z" opacity=".2"/><path d="M184 72H40a16 16 0 0 0-16 16v112a16 16 0 0 0 16 16h144a16 16 0 0 0 16-16V88a16 16 0 0 0-16-16Zm0 128H40V88h144v112Zm48-144v120a8 8 0 0 1-16 0V56H64a8 8 0 0 1 0-16h152a16 16 0 0 1 16 16Z"/></symbol></svg>